<?xml version="1.0" encoding="UTF-8"?>
<!DOCTYPE svg PUBLIC "-//W3C//DTD SVG 1.1//EN" "http://www.w3.org/Graphics/SVG/1.1/DTD/svg11.dtd">
<svg xmlns="http://www.w3.org/2000/svg" version="1.1" width="512px" height="512px" style="shape-rendering:geometricPrecision; text-rendering:geometricPrecision; image-rendering:optimizeQuality; fill-rule:evenodd; clip-rule:evenodd" xmlns:xlink="http://www.w3.org/1999/xlink">
<g><path style="opacity:0.982" fill="#f9b300" d="M 127.5,78.5 C 122.153,79.7752 116.82,79.7752 111.5,78.5C 98.1903,72.8847 93.0237,62.8847 96,48.5C 101.457,34.5184 111.624,29.0184 126.5,32C 140.482,37.4572 145.982,47.6239 143,62.5C 140.348,70.3183 135.181,75.6516 127.5,78.5 Z"/></g>
<g><path style="opacity:0.982" fill="#f9b300" d="M 399.5,78.5 C 394.153,79.7752 388.82,79.7752 383.5,78.5C 370.19,72.8847 365.024,62.8847 368,48.5C 373.457,34.5184 383.624,29.0184 398.5,32C 412.482,37.4572 417.982,47.6239 415,62.5C 412.348,70.3183 407.181,75.6516 399.5,78.5 Z"/></g>
<g><path style="opacity:1" fill="#c9154d" d="M 116.5,47.5 C 124.372,47.2013 127.872,50.868 127,58.5C 124.774,62.8608 121.274,64.3608 116.5,63C 112.139,60.7742 110.639,57.2742 112,52.5C 113.366,50.6383 114.866,48.9717 116.5,47.5 Z"/></g>
<g><path style="opacity:1" fill="#c9154d" d="M 388.5,47.5 C 396.372,47.2013 399.872,50.868 399,58.5C 396.774,62.8608 393.274,64.3608 388.5,63C 384.139,60.7742 382.639,57.2742 384,52.5C 385.366,50.6383 386.866,48.9717 388.5,47.5 Z"/></g>
<g><path style="opacity:0.992" fill="#c60c50" d="M 111.5,78.5 C 116.82,79.7752 122.153,79.7752 127.5,78.5C 127.334,82.8461 127.501,87.1794 128,91.5C 134.703,98.0352 141.203,104.702 147.5,111.5C 152.5,117.167 157.833,122.5 163.5,127.5C 160.234,132.37 157.234,137.37 154.5,142.5C 144.447,131.446 133.781,121.113 122.5,111.5C 118.836,107.668 115.336,103.668 112,99.5C 111.5,92.5079 111.334,85.5079 111.5,78.5 Z"/></g>
<g><path style="opacity:0.992" fill="#c60b50" d="M 383.5,78.5 C 388.82,79.7752 394.153,79.7752 399.5,78.5C 399.666,85.5079 399.5,92.5079 399,99.5C 395.664,103.668 392.164,107.668 388.5,111.5C 387.761,111.369 387.094,111.536 386.5,112C 376.632,122.036 366.632,131.869 356.5,141.5C 353.514,136.87 350.514,132.203 347.5,127.5C 353.167,122.5 358.5,117.167 363.5,111.5C 369.797,104.702 376.297,98.0352 383,91.5C 383.499,87.1794 383.666,82.8461 383.5,78.5 Z"/></g>
<g><path style="opacity:0.999" fill="#f9b300" d="M 334.5,111.5 C 338.833,116.833 343.167,122.167 347.5,127.5C 350.514,132.203 353.514,136.87 356.5,141.5C 356.5,142.167 356.5,142.833 356.5,143.5C 365.148,161.133 368.815,179.8 367.5,199.5C 366.194,204.616 365.527,209.949 365.5,215.5C 360.701,233.097 352.701,249.097 341.5,263.5C 336.5,269.167 331.167,274.5 325.5,279.5C 311.425,285.978 304.092,296.978 303.5,312.5C 303.5,314.833 303.5,317.167 303.5,319.5C 271.5,319.5 239.5,319.5 207.5,319.5C 207.5,317.167 207.5,314.833 207.5,312.5C 206.908,296.978 199.575,285.978 185.5,279.5C 179.833,274.5 174.5,269.167 169.5,263.5C 158.299,249.097 150.299,233.097 145.5,215.5C 145.473,209.949 144.806,204.616 143.5,199.5C 142.181,179.807 145.848,161.14 154.5,143.5C 154.5,143.167 154.5,142.833 154.5,142.5C 157.234,137.37 160.234,132.37 163.5,127.5C 167.803,122.191 172.137,116.858 176.5,111.5C 213.65,78.0284 255.65,70.5284 302.5,89C 314.46,94.8001 325.126,102.3 334.5,111.5 Z"/></g>
<g><path style="opacity:0.991" fill="#f8b301" d="M 78.5,111.5 C 81.6994,125.941 76.6994,136.275 63.5,142.5C 58.1529,143.775 52.8195,143.775 47.5,142.5C 39.685,138.686 34.3517,132.686 31.5,124.5C 29.6249,110.406 35.2916,100.906 48.5,96C 62.8847,93.0237 72.8847,98.1903 78.5,111.5 Z"/></g>
<g><path style="opacity:0.991" fill="#f8b301" d="M 479.5,124.5 C 476.648,132.686 471.315,138.686 463.5,142.5C 458.153,143.775 452.82,143.775 447.5,142.5C 434.295,136.248 429.295,125.915 432.5,111.5C 438.115,98.1903 448.115,93.0237 462.5,96C 475.708,100.906 481.375,110.406 479.5,124.5 Z"/></g>
<g><path style="opacity:1" fill="#0b5077" d="M 78.5,111.5 C 93.1667,111.5 107.833,111.5 122.5,111.5C 133.781,121.113 144.447,131.446 154.5,142.5C 154.5,142.833 154.5,143.167 154.5,143.5C 125.831,143.333 97.1647,143.5 68.5,144C 66.313,145.025 64.6464,146.525 63.5,148.5C 63.5,146.5 63.5,144.5 63.5,142.5C 76.6994,136.275 81.6994,125.941 78.5,111.5 Z"/></g>
<g><path style="opacity:1" fill="#115076" d="M 147.5,111.5 C 157.167,111.5 166.833,111.5 176.5,111.5C 172.137,116.858 167.803,122.191 163.5,127.5C 157.833,122.5 152.5,117.167 147.5,111.5 Z"/></g>
<g><path style="opacity:1" fill="#0e5077" d="M 334.5,111.5 C 344.167,111.5 353.833,111.5 363.5,111.5C 358.5,117.167 353.167,122.5 347.5,127.5C 343.167,122.167 338.833,116.833 334.5,111.5 Z"/></g>
<g><path style="opacity:1" fill="#0b5077" d="M 388.5,111.5 C 403.167,111.5 417.833,111.5 432.5,111.5C 429.295,125.915 434.295,136.248 447.5,142.5C 447.5,144.5 447.5,146.5 447.5,148.5C 446.254,146.099 444.254,144.599 441.5,144C 413.169,143.5 384.835,143.333 356.5,143.5C 356.5,142.833 356.5,142.167 356.5,141.5C 366.632,131.869 376.632,122.036 386.5,112C 387.094,111.536 387.761,111.369 388.5,111.5 Z"/></g>
<g><path style="opacity:1" fill="#c7184d" d="M 52.5,111.5 C 62.0342,111.244 65.2009,115.578 62,124.5C 57.6667,128.5 53.3333,128.5 49,124.5C 46.3252,119.011 47.4919,114.678 52.5,111.5 Z"/></g>
<g><path style="opacity:1" fill="#c7184d" d="M 452.5,111.5 C 462.034,111.244 465.201,115.578 462,124.5C 457.667,128.5 453.333,128.5 449,124.5C 446.325,119.011 447.492,114.678 452.5,111.5 Z"/></g>
<g><path style="opacity:1" fill="#0a5077" d="M 31.5,124.5 C 34.3517,132.686 39.685,138.686 47.5,142.5C 47.3335,154.171 47.5001,165.838 48,177.5C 48.3333,178.5 48.6667,179.5 49,180.5C 54.0365,185.369 58.8698,190.369 63.5,195.5C 63.5,231.5 63.5,267.5 63.5,303.5C 51.8052,304.351 43.9719,310.351 40,321.5C 37.7371,336.141 43.5704,345.975 57.5,351C 59.4727,351.495 61.4727,351.662 63.5,351.5C 63.3334,365.504 63.5001,379.504 64,393.5C 64.3981,396.232 65.8981,398.065 68.5,399C 128.832,399.5 189.166,399.667 249.5,399.5C 252.833,399.5 256.167,399.5 259.5,399.5C 320.168,399.667 380.834,399.5 441.5,399C 444.667,398.5 446.5,396.667 447,393.5C 447.5,379.504 447.667,365.504 447.5,351.5C 464.84,348.989 472.674,338.989 471,321.5C 467.043,310.37 459.21,304.37 447.5,303.5C 447.5,267.5 447.5,231.5 447.5,195.5C 452.13,190.369 456.963,185.369 462,180.5C 462.333,179.5 462.667,178.5 463,177.5C 463.5,165.838 463.667,154.171 463.5,142.5C 471.315,138.686 476.648,132.686 479.5,124.5C 479.667,223.501 479.5,322.501 479,421.5C 477.167,426 474,429.167 469.5,431C 408.834,431.5 348.168,431.667 287.5,431.5C 266.167,431.5 244.833,431.5 223.5,431.5C 162.832,431.667 102.166,431.5 41.5,431C 37,429.167 33.8333,426 32,421.5C 31.5,322.501 31.3333,223.501 31.5,124.5 Z"/></g>
<g><path style="opacity:1" fill="#c60d50" d="M 47.5,142.5 C 52.8195,143.775 58.1529,143.775 63.5,142.5C 63.5,144.5 63.5,146.5 63.5,148.5C 63.3336,156.507 63.5003,164.507 64,172.5C 72.8333,181.333 81.6667,190.167 90.5,199C 108.164,199.5 125.83,199.667 143.5,199.5C 144.806,204.616 145.473,209.949 145.5,215.5C 125.164,215.667 104.831,215.5 84.5,215C 77.3293,208.662 70.3293,202.162 63.5,195.5C 58.8698,190.369 54.0365,185.369 49,180.5C 48.6667,179.5 48.3333,178.5 48,177.5C 47.5001,165.838 47.3335,154.171 47.5,142.5 Z"/></g>
<g><path style="opacity:1" fill="#c60d50" d="M 447.5,142.5 C 452.82,143.775 458.153,143.775 463.5,142.5C 463.667,154.171 463.5,165.838 463,177.5C 462.667,178.5 462.333,179.5 462,180.5C 456.963,185.369 452.13,190.369 447.5,195.5C 441.369,201.13 435.369,206.964 429.5,213C 428.167,213.667 426.833,214.333 425.5,215C 405.836,215.5 386.169,215.667 366.5,215.5C 366.167,215.5 365.833,215.5 365.5,215.5C 365.527,209.949 366.194,204.616 367.5,199.5C 385.17,199.667 402.836,199.5 420.5,199C 429.333,190.167 438.167,181.333 447,172.5C 447.5,164.507 447.666,156.507 447.5,148.5C 447.5,146.5 447.5,144.5 447.5,142.5 Z"/></g>
<g><path style="opacity:1" fill="#019fc7" d="M 154.5,143.5 C 145.848,161.14 142.181,179.807 143.5,199.5C 125.83,199.667 108.164,199.5 90.5,199C 81.6667,190.167 72.8333,181.333 64,172.5C 63.5003,164.507 63.3336,156.507 63.5,148.5C 64.6464,146.525 66.313,145.025 68.5,144C 97.1647,143.5 125.831,143.333 154.5,143.5 Z"/></g>
<g><path style="opacity:1" fill="#019fc7" d="M 356.5,143.5 C 384.835,143.333 413.169,143.5 441.5,144C 444.254,144.599 446.254,146.099 447.5,148.5C 447.666,156.507 447.5,164.507 447,172.5C 438.167,181.333 429.333,190.167 420.5,199C 402.836,199.5 385.17,199.667 367.5,199.5C 368.815,179.8 365.148,161.133 356.5,143.5 Z"/></g>
<g><path style="opacity:1" fill="#bf7900" d="M 204.5,151.5 C 214.034,151.244 217.201,155.578 214,164.5C 204.986,173.348 196.152,182.348 187.5,191.5C 196.849,201.015 206.016,210.682 215,220.5C 215.742,230.039 211.575,233.205 202.5,230C 191.333,218.833 180.167,207.667 169,196.5C 167.121,193.134 167.121,189.8 169,186.5C 180.728,174.604 192.562,162.937 204.5,151.5 Z"/></g>
<g><path style="opacity:1" fill="#bf7900" d="M 268.5,151.5 C 278.034,151.244 281.201,155.578 278,164.5C 267.333,185.833 256.667,207.167 246,228.5C 241.631,232.379 237.298,232.379 233,228.5C 231.75,225.923 231.416,223.257 232,220.5C 243,198.5 254,176.5 265,154.5C 266.145,153.364 267.312,152.364 268.5,151.5 Z"/></g>
<g><path style="opacity:1" fill="#bf7900" d="M 300.5,151.5 C 303.271,151.421 305.937,151.921 308.5,153C 319.667,164.167 330.833,175.333 342,186.5C 343.879,189.8 343.879,193.134 342,196.5C 330.833,207.667 319.667,218.833 308.5,230C 298,232.833 294.167,229 297,218.5C 306.014,209.652 314.848,200.652 323.5,191.5C 314.848,182.348 306.014,173.348 297,164.5C 294.325,159.011 295.492,154.678 300.5,151.5 Z"/></g>
<g><path style="opacity:1" fill="#029fc7" d="M 63.5,195.5 C 70.3293,202.162 77.3293,208.662 84.5,215C 104.831,215.5 125.164,215.667 145.5,215.5C 147.363,233.092 153.363,249.092 163.5,263.5C 145.164,263.333 126.83,263.5 108.5,264C 95.9756,277.359 83.9756,291.193 72.5,305.5C 69.6967,304.072 66.6967,303.405 63.5,303.5C 63.5,267.5 63.5,231.5 63.5,195.5 Z"/></g>
<g><path style="opacity:1" fill="#029fc7" d="M 447.5,195.5 C 447.5,231.5 447.5,267.5 447.5,303.5C 444.455,303.508 441.455,303.841 438.5,304.5C 427.531,292.025 416.698,279.358 406,266.5C 404.581,265.54 403.081,264.707 401.5,264C 383.503,263.5 365.503,263.333 347.5,263.5C 357.358,248.932 363.691,232.932 366.5,215.5C 386.169,215.667 405.836,215.5 425.5,215C 426.833,214.333 428.167,213.667 429.5,213C 435.369,206.964 441.369,201.13 447.5,195.5 Z"/></g>
<g><path style="opacity:1" fill="#1e84a4" d="M 145.5,215.5 C 150.299,233.097 158.299,249.097 169.5,263.5C 167.5,263.5 165.5,263.5 163.5,263.5C 153.363,249.092 147.363,233.092 145.5,215.5 Z"/></g>
<g><path style="opacity:1" fill="#2084a3" d="M 365.5,215.5 C 365.833,215.5 366.167,215.5 366.5,215.5C 363.691,232.932 357.358,248.932 347.5,263.5C 345.5,263.5 343.5,263.5 341.5,263.5C 352.701,249.097 360.701,233.097 365.5,215.5 Z"/></g>
<g><path style="opacity:1" fill="#c70d50" d="M 163.5,263.5 C 165.5,263.5 167.5,263.5 169.5,263.5C 174.5,269.167 179.833,274.5 185.5,279.5C 182.833,279.5 180.167,279.5 177.5,279.5C 156.497,279.333 135.497,279.5 114.5,280C 104.665,291.999 94.6649,303.833 84.5,315.5C 81.4067,311.073 77.4067,307.74 72.5,305.5C 83.9756,291.193 95.9756,277.359 108.5,264C 126.83,263.5 145.164,263.333 163.5,263.5 Z"/></g>
<g><path style="opacity:1" fill="#c70c50" d="M 341.5,263.5 C 343.5,263.5 345.5,263.5 347.5,263.5C 365.503,263.333 383.503,263.5 401.5,264C 403.081,264.707 404.581,265.54 406,266.5C 416.698,279.358 427.531,292.025 438.5,304.5C 433.874,307.458 429.874,311.124 426.5,315.5C 416.627,303.605 406.627,291.772 396.5,280C 375.503,279.5 354.503,279.333 333.5,279.5C 330.833,279.5 328.167,279.5 325.5,279.5C 331.167,274.5 336.5,269.167 341.5,263.5 Z"/></g>
<g><path style="opacity:1" fill="#009fc7" d="M 177.5,279.5 C 185.142,286.302 192.975,292.969 201,299.5C 203.745,303.657 205.912,307.99 207.5,312.5C 207.5,314.833 207.5,317.167 207.5,319.5C 207.5,331.5 207.5,343.5 207.5,355.5C 207.903,371.058 215.903,377.724 231.5,375.5C 232.552,387.218 238.552,395.218 249.5,399.5C 189.166,399.667 128.832,399.5 68.5,399C 65.8981,398.065 64.3981,396.232 64,393.5C 63.5001,379.504 63.3334,365.504 63.5,351.5C 78.0609,349.772 86.0609,341.606 87.5,327C 87.6126,322.844 86.6126,319.011 84.5,315.5C 94.6649,303.833 104.665,291.999 114.5,280C 135.497,279.5 156.497,279.333 177.5,279.5 Z"/></g>
<g><path style="opacity:1" fill="#1383a7" d="M 177.5,279.5 C 180.167,279.5 182.833,279.5 185.5,279.5C 199.575,285.978 206.908,296.978 207.5,312.5C 205.912,307.99 203.745,303.657 201,299.5C 192.975,292.969 185.142,286.302 177.5,279.5 Z"/></g>
<g><path style="opacity:1" fill="#1383a7" d="M 325.5,279.5 C 328.167,279.5 330.833,279.5 333.5,279.5C 325.858,286.302 318.025,292.969 310,299.5C 307.255,303.657 305.088,307.99 303.5,312.5C 304.092,296.978 311.425,285.978 325.5,279.5 Z"/></g>
<g><path style="opacity:1" fill="#009fc7" d="M 333.5,279.5 C 354.503,279.333 375.503,279.5 396.5,280C 406.627,291.772 416.627,303.605 426.5,315.5C 420.629,329.39 423.963,340.557 436.5,349C 439.923,350.904 443.59,351.737 447.5,351.5C 447.667,365.504 447.5,379.504 447,393.5C 446.5,396.667 444.667,398.5 441.5,399C 380.834,399.5 320.168,399.667 259.5,399.5C 271.612,396.054 278.278,388.054 279.5,375.5C 295.19,377.797 303.19,371.13 303.5,355.5C 303.5,343.5 303.5,331.5 303.5,319.5C 303.5,317.167 303.5,314.833 303.5,312.5C 305.088,307.99 307.255,303.657 310,299.5C 318.025,292.969 325.858,286.302 333.5,279.5 Z"/></g>
<g><path style="opacity:1" fill="#f7b204" d="M 63.5,303.5 C 66.6967,303.405 69.6967,304.072 72.5,305.5C 77.4067,307.74 81.4067,311.073 84.5,315.5C 86.6126,319.011 87.6126,322.844 87.5,327C 86.0609,341.606 78.0609,349.772 63.5,351.5C 61.4727,351.662 59.4727,351.495 57.5,351C 43.5704,345.975 37.7371,336.141 40,321.5C 43.9719,310.351 51.8052,304.351 63.5,303.5 Z"/></g>
<g><path style="opacity:1" fill="#f7b304" d="M 447.5,303.5 C 459.21,304.37 467.043,310.37 471,321.5C 472.674,338.989 464.84,348.989 447.5,351.5C 443.59,351.737 439.923,350.904 436.5,349C 423.963,340.557 420.629,329.39 426.5,315.5C 429.874,311.124 433.874,307.458 438.5,304.5C 441.455,303.841 444.455,303.508 447.5,303.5 Z"/></g>
<g><path style="opacity:1" fill="#c70a50" d="M 207.5,319.5 C 239.5,319.5 271.5,319.5 303.5,319.5C 303.5,331.5 303.5,343.5 303.5,355.5C 298.604,365.282 290.604,369.282 279.5,367.5C 263.5,367.5 247.5,367.5 231.5,367.5C 220.143,369.739 212.143,365.739 207.5,355.5C 207.5,343.5 207.5,331.5 207.5,319.5 Z"/></g>
<g><path style="opacity:1" fill="#c7194e" d="M 60.5,319.5 C 70.0328,319.241 73.1995,323.574 70,332.5C 60.6423,337.824 55.9756,335.157 56,324.5C 57.025,322.313 58.525,320.646 60.5,319.5 Z"/></g>
<g><path style="opacity:1" fill="#c7194e" d="M 444.5,319.5 C 450.629,318.555 454.296,321.055 455.5,327C 455.333,332.5 452.5,335.333 447,335.5C 440.894,334.296 438.561,330.629 440,324.5C 441.025,322.313 442.525,320.646 444.5,319.5 Z"/></g>
<g><path style="opacity:1" fill="#0581a9" d="M 207.5,355.5 C 212.143,365.739 220.143,369.739 231.5,367.5C 233.902,384.409 243.568,392.242 260.5,391C 272.17,387.495 278.503,379.662 279.5,367.5C 290.604,369.282 298.604,365.282 303.5,355.5C 303.19,371.13 295.19,377.797 279.5,375.5C 278.278,388.054 271.612,396.054 259.5,399.5C 256.167,399.5 252.833,399.5 249.5,399.5C 238.552,395.218 232.552,387.218 231.5,375.5C 215.903,377.724 207.903,371.058 207.5,355.5 Z"/></g>
<g><path style="opacity:1" fill="#095078" d="M 231.5,367.5 C 247.5,367.5 263.5,367.5 279.5,367.5C 278.503,379.662 272.17,387.495 260.5,391C 243.568,392.242 233.902,384.409 231.5,367.5 Z"/></g>
<g><path style="opacity:1" fill="#00315a" d="M 223.5,431.5 C 244.833,431.5 266.167,431.5 287.5,431.5C 287.5,434.167 287.5,436.833 287.5,439.5C 266.167,439.5 244.833,439.5 223.5,439.5C 223.5,436.833 223.5,434.167 223.5,431.5 Z"/></g>
<g><path style="opacity:0.997" fill="#0a5078" d="M 223.5,439.5 C 244.833,439.5 266.167,439.5 287.5,439.5C 287.5,447.5 287.5,455.5 287.5,463.5C 305.503,463.333 323.503,463.5 341.5,464C 348.49,466.814 351.823,471.981 351.5,479.5C 287.5,479.5 223.5,479.5 159.5,479.5C 159.177,471.981 162.51,466.814 169.5,464C 187.497,463.5 205.497,463.333 223.5,463.5C 223.5,455.5 223.5,447.5 223.5,439.5 Z"/></g>
</svg>
