<svg version="1.1" id="Layer_1" xmlns="http://www.w3.org/2000/svg" xmlns:xlink="http://www.w3.org/1999/xlink" viewBox="-50.8 -50.8 609.60 609.60" xml:space="preserve" width="256px" height="256px" fill="#000000"><g id="SVGRepo_bgCarrier" stroke-width="0"><rect x="-50.8" y="-50.8" width="609.60" height="609.60" rx="0" fill="#ffffff" strokewidth="0"></rect></g><g id="SVGRepo_tracerCarrier" stroke-linecap="round" stroke-linejoin="round"></g><g id="SVGRepo_iconCarrier"> <circle style="fill:#b5c4c9;" cx="254" cy="254" r="254"></circle> <path style="fill:#bac5c9;" d="M74.8,434c46,45.6,109.2,74,179.2,74s133.2-28.4,179.2-74H74.8z"></path> <rect x="214.8" y="368.8" style="fill:#FFFFFF;" width="78.4" height="41.6"></rect> <g> <rect x="214.8" y="368.8" style="fill:#E6E9EE;" width="78.4" height="9.2"></rect> <path style="fill:#E6E9EE;" d="M326.8,434H181.2l0,0c0-13.2,10.8-24,24-24h97.6C316,410.4,326.8,420.8,326.8,434L326.8,434z"></path> </g> <path style="fill:#324A5E;" d="M410,368.8H98c-9.6,0-17.6-8-17.6-17.6V136.8c0-9.6,8-17.6,17.6-17.6h312c9.6,0,17.6,8,17.6,17.6 v214.8C427.6,360.8,419.6,368.8,410,368.8z"></path> <g> <path style="fill:#FFFFFF;" d="M80.4,334v17.6c0,9.6,7.6,17.2,17.2,17.2H410c9.6,0,17.2-7.6,17.2-17.2V334H80.4z"></path> <rect x="93.6" y="131.6" style="fill:#FFFFFF;" width="321.2" height="187.6"></rect> </g> <circle style="fill:#FF7058;" cx="399.2" cy="351.2" r="8"></circle> <circle style="fill:#4CDBC4;" cx="376.8" cy="351.2" r="8"></circle> <circle style="fill:#b5c4c9;" cx="354.4" cy="351.2" r="8"></circle> <rect x="127.2" y="184.8" style="fill:#ACB3BA;" width="38.8" height="110.8"></rect> <rect x="180.8" y="232.8" style="fill:#4CDBC4;" width="38.8" height="63.2"></rect> <rect x="234.4" y="203.2" style="fill:#FFD05B;" width="38.8" height="92.4"></rect> <rect x="288.4" y="152.8" style="fill:#bac5c9;" width="38.8" height="142.8"></rect> <rect x="342" y="263.2" style="fill:#FF7058;" width="38.8" height="32.4"></rect> </g></svg>